<svg width="40" height="40" viewBox="0 0 40 40" fill="none" xmlns="http://www.w3.org/2000/svg">
<path d="M20 10C17.3478 10 14.8043 11.0536 12.9289 12.9289C11.0536 14.8043 10 17.3478 10 20C10 22.6522 11.0536 25.1957 12.9289 27.0711C14.8043 28.9464 17.3478 30 20 30C22.6522 30 25.1957 28.9464 27.0711 27.0711C28.9464 25.1957 30 22.6522 30 20C30 17.3478 28.9464 14.8043 27.0711 12.9289C25.1957 11.0536 22.6522 10 20 10Z" fill="#039BE5"/>
<path d="M21.3537 22.6504H23.9416L24.3479 20.0215H21.3532V18.5847C21.3532 17.4926 21.71 16.5241 22.7316 16.5241H24.3732V14.2299C24.0848 14.191 23.4748 14.1057 22.3221 14.1057C19.9153 14.1057 18.5042 15.3768 18.5042 18.2726V20.0215H16.03V22.6504H18.5042V29.8762C18.9942 29.9499 19.4906 29.9999 20 29.9999C20.4606 29.9999 20.91 29.9578 21.3537 29.8978V22.6504Z" fill="white"/>
</svg>
